<svg width="100" height="100" viewBox="0 0 100 100" fill="none" xmlns="http://www.w3.org/2000/svg">
<rect width="100" height="100" fill="white"/>
<rect width="100" height="100" fill="#0069B9"/>
<path d="M63.9248 34.536V57H58.4528V34.536H63.9248ZM84.0503 34.536V38.92H78.0983V57H72.6263V38.92H66.6743V34.536H84.0503ZM92.6845 51.944L89.1325 61.128H85.6445L87.5005 51.944H92.6845ZM65.3022 70.536L59.4463 93H52.8223L49.2383 78.216L45.5263 93H38.9023L33.2063 70.536H39.0623L42.2943 86.888L46.2943 70.536H52.3103L56.1503 86.888L59.4143 70.536H65.3022ZM84.2065 70.536V74.92H78.2545V93H72.7825V74.92H66.8305V70.536H84.2065ZM89.5128 93.256C88.5528 93.256 87.7634 92.9787 87.1448 92.424C86.5474 91.848 86.2488 91.144 86.2488 90.312C86.2488 89.4587 86.5474 88.744 87.1448 88.168C87.7634 87.592 88.5528 87.304 89.5128 87.304C90.4514 87.304 91.2194 87.592 91.8168 88.168C92.4354 88.744 92.7448 89.4587 92.7448 90.312C92.7448 91.144 92.4354 91.848 91.8168 92.424C91.2194 92.9787 90.4514 93.256 89.5128 93.256Z" fill="white"/>
</svg>
